<svg xmlns="http://www.w3.org/2000/svg" viewBox="0 0 761.06 244.56"><defs><style>.cls-1{fill:#cd5b5b;}.cls-2{fill:#fff;}</style></defs><title>logo</title><g id="Layer_2" data-name="Layer 2"><g id="Numbers"><path class="cls-1" d="M761.06,215.56a4.74,4.74,0,0,1-.84.05l0-6.09.87,0Z"/><path class="cls-1" d="M675,.46a29.08,29.08,0,0,1,10.15,0c12.17,2,20.35,8.75,23.73,20.6,3.07,10.75,1.52,23.9-13,34.31,11.18,6,16.84,15.48,17,27.86a31,31,0,0,1-9.7,23.74c-13.75,13.24-37.93,10-48.49-2.59-10.32-12.35-10.87-37.74,10-49.16-12.52-8.4-17-20-13.06-34.34C654.85,9.23,663.07,2.53,675,.46ZM656,83.9c-.06,13.28,8.83,24.37,24.16,24.3,14.55-.07,24.37-8.53,24.47-24.5.1-15.76-10-24.88-24.67-24.87S655.66,69.84,656,83.9Zm2.83-55.12a21.64,21.64,0,0,0,20.79,23.16c12.11.19,22.3-9.06,22.27-22.37,0-13.72-9.77-22.2-21.21-22.26C668.08,7.23,659,16.14,658.78,28.78Z"/><path class="cls-1" d="M720,243.69h0c-12.24-2.81-20.75-10.06-23.69-22.28-3.78-15.74,1.23-28.46,15.73-37.16-8.17-5.75-13.39-13-14-23-.53-9.07,1.62-17.38,8.22-23.73,12.71-12.23,33.11-11.21,44.23,1.42s10,34.3-7.31,45.39c10.17,5.48,16,13.81,17,25.23l0,6.09c-2,16.21-11.92,26.49-27,28.09A50.67,50.67,0,0,1,720,243.69Zm32.17-31c-.1-13.69-9.22-24.93-24.3-24.85s-24.34,9.58-24.44,24.59c-.1,15.32,9.38,24.91,24.66,24.78C744.25,237.06,752,225.25,752.15,212.69Zm-3-54.23a21.18,21.18,0,0,0-21.31-22.15,21.53,21.53,0,0,0-21.79,21.85c0,13,9.1,22.38,21.48,22.74S750.08,169.84,749.17,158.46Z"/><path class="cls-1" d="M630.51,235.44h52.2v6.67H613.77c3.69-4.19,7-8,10.41-11.8q19.56-21.67,39.15-43.33c5.17-5.75,9.26-12.12,11.1-19.79,3.83-15.92-6.66-30-23.09-30.8-15.12-.76-25.79,8.48-27.28,23.63-.06.64-.2,1.27-.34,2.15h-7.38c-.54-7.49,1.79-14.08,5.89-20,7.12-10.36,17.77-13.64,29.59-13.2,17.24.65,26.9,11,30.59,23.43,3.15,10.66.36,20.5-5.44,29.39-3.7,5.68-8.29,10.82-12.81,15.91C653.89,209.22,643.4,220.6,633,232.07,632.29,232.88,631.71,233.82,630.51,235.44Z"/><path class="cls-1" d="M748.61,113.26h-7.24V8.73H723.54l3.66-6.91h21.41Z"/><path class="cls-1" d="M623.84,113.2h-6.77V8.64H599.24c1.48-2.84,2.51-4.83,3.55-6.85h21.05Z"/></g><g id="Words"><path class="cls-2" d="M112.29,130.59h6.64v111.5h-6.64Z"/><path class="cls-2" d="M495.14,243.66a39.5,39.5,0,0,1-11.18,0c-14.11-2.19-25-11.36-28.1-24l5.8-2.76c2,3.18,3.64,6.25,5.66,9,6.52,9,15.6,12.17,26.27,10.51,10.13-1.57,17.38-7.17,20.81-17.07,3.58-10.37.81-18.88-8.53-24.46-7.54-4.51-15.49-8.34-23.26-12.45-1.91-1-3.86-1.93-5.76-2.95-11.48-6.2-16.54-15.91-14.57-27.92s11-20.81,23.34-22.7c10.8-1.65,25.4,1.59,32.44,16l-5.31,4.46c-1.15-1.62-2.07-3.15-3.2-4.5-6.31-7.49-14.22-10.74-23.94-8.59-12.48,2.75-16.53,14.5-15.37,23a16.37,16.37,0,0,0,9,12.48c7.59,4.09,15.38,7.82,22.9,12,4.91,2.74,9.89,5.58,14.13,9.2,7,6,9,14.2,7.31,23.12C520.78,231.1,510.29,241.12,495.14,243.66Z"/><path class="cls-2" d="M544.44,131h53.32v6.57H552.3v39.91h44.28v7H552.3v50.72h45.48v7H544.44Z"/><path class="cls-2" d="M216.06,235H247v6.75H209.09V130.64h7Z"/><path class="cls-2" d="M187.73,234.91v7H149.47V130.67h7.42V234.91Z"/><path class="cls-2" d="M385,243.74a2.28,2.28,0,0,1,.09.82h-3a3.39,3.39,0,0,0-.05-.84Z"/><path class="cls-2" d="M394.06,244.56a3.18,3.18,0,0,1,.08-.81l3,0a3,3,0,0,0-.06.84Z"/><path class="cls-2" d="M397.12,243.72l-3,0H385l-3,0c-25.81-3.7-44.4-20.74-49.25-46-6.64-34.63,16.27-63.44,48-68.37,29.81-4.63,57.95,13.18,65.3,42.52C454.77,206.7,432.81,238.77,397.12,243.72Zm-57.2-57.66c-1,24.64,18,50.81,49,50.89,28.29.07,50.68-20.21,50.93-50.71a49.64,49.64,0,0,0-49.69-50.49C361.64,135.71,340,157.44,339.92,186.06Z"/><path class="cls-2" d="M.07,130.6H6.92v46.56H74V130.58h7.57V241.7H74.3V185.05h-67v56.67L0,241.7v-.32c0-2.36,0-3.15,0-4.82Q.11,183.58.07,130.6Z"/><path class="cls-2" d="M394.06,244.56h-9a2.28,2.28,0,0,0-.09-.82h9.17A3.18,3.18,0,0,0,394.06,244.56Z"/><path class="cls-2" d="M287.39,189.65l36.2,52.43h-8.53c-1.15-1.47-2.76-3.33-4.14-5.35-9.8-14.25-19.51-28.56-29.35-42.78-1.29-1.85-2.05-4.77-5.88-4.14v52h-7.43v-112c9.4.47,18.75.27,27.89,1.55,15.18,2.11,24.24,14.38,23.32,29.72-.55,9.12-3.41,16.94-11.08,22.37-5.28,3.74-11.38,5.32-17.76,5.91C289.81,189.5,289,189.54,287.39,189.65Zm-11.27-6.77,14.94-1.17c12.16-1,19.85-8.88,20.35-20.9.41-9.74-4.22-18-11.94-21.1s-15.48-2.37-23.35-2.11Z"/></g></g></svg>